<svg xmlns="http://www.w3.org/2000/svg" viewBox="0 0 1024 1024" width="1024" height="1024"><g transform="translate(512 512) rotate(-18)"><g><defs><clipPath id="rd-clip-die"><path d="M-73.16182603178203,-309.75999986156177Q0,-352 73.16182603178203,-309.75999986156177L231.67911476821797,-218.24000013843823Q304.8409408,-176 304.8409408,-91.52000000000001L304.8409408,91.52000000000001Q304.8409408,176 231.67911476821797,218.24000013843823L73.16182603178203,309.75999986156177Q0,352 -73.16182603178203,309.75999986156177L-231.67911476821797,218.24000013843823Q-304.8409408,176 -304.8409408,91.52000000000001L-304.8409408,-91.52000000000001Q-304.8409408,-176 -231.67911476821797,-218.24000013843823Z"></path></clipPath></defs><g clip-path="url(#rd-clip-die)"><polygon points="-304.8409408,-176 0,0 0,352 -304.8409408,176" fill="#F1C84B"></polygon><polygon points="304.8409408,-176 304.8409408,176 0,352 0,0" fill="#F08A2C"></polygon><polygon points="0,-352 304.8409408,-176 0,0 -304.8409408,-176" fill="#E5384A"></polygon><path d="M304.8409408,-176 L0,0 L0,352 M-304.8409408,-176 L0,0" fill="none" stroke="#1B1410" stroke-width="16" stroke-linejoin="round" stroke-linecap="round"></path></g><g transform="matrix(304.8409408 -176 304.8409408 176 -304.8409408 -176)"><circle cx="0.5" cy="0.5" r="0.055" fill="#1B1410"></circle></g><g transform="matrix(0 352 304.8409408 176 -304.8409408 -176)"><circle cx="0.25" cy="0.25" r="0.055" fill="#1B1410"></circle><circle cx="0.5" cy="0.5" r="0.055" fill="#1B1410"></circle><circle cx="0.75" cy="0.75" r="0.055" fill="#1B1410"></circle></g><g transform="matrix(0 352 -304.8409408 176 304.8409408 -176)"><circle cx="0.28" cy="0.28" r="0.055" fill="#1B1410"></circle><circle cx="0.72" cy="0.72" r="0.055" fill="#1B1410"></circle></g><path d="M-73.16182603178203,-309.75999986156177Q0,-352 73.16182603178203,-309.75999986156177L231.67911476821797,-218.24000013843823Q304.8409408,-176 304.8409408,-91.52000000000001L304.8409408,91.52000000000001Q304.8409408,176 231.67911476821797,218.24000013843823L73.16182603178203,309.75999986156177Q0,352 -73.16182603178203,309.75999986156177L-231.67911476821797,218.24000013843823Q-304.8409408,176 -304.8409408,91.52000000000001L-304.8409408,-91.52000000000001Q-304.8409408,-176 -231.67911476821797,-218.24000013843823Z" fill="none" stroke="#1B1410" stroke-width="16" stroke-linejoin="round"></path></g></g></svg>